<svg width="35" height="35" viewBox="0 0 35 35" fill="none" xmlns="http://www.w3.org/2000/svg">
<path d="M15.8241 0.078268C13.7109 0.278587 13.08 0.478907 6.68031 2.94284C3.89611 4.01455 1.26214 5.03618 0.821476 5.19643C0.380811 5.3667 0.0102525 5.51694 0.000237375 5.52696C-0.0197928 5.53697 1.2321 14.972 2.13345 21.5926L2.41388 23.6258L3.97623 24.998C4.82752 25.7492 6.5401 27.2216 7.77196 28.2632C9.01383 29.3149 10.9868 30.9876 12.1586 31.9892C14.6323 34.1125 15.113 34.4731 15.8041 34.7335C16.4651 34.9839 17.6769 35.0741 18.4481 34.9339C19.5798 34.7335 20.0505 34.383 25.2784 29.9159C28.0225 27.5821 30.3761 25.5689 30.5163 25.4487C30.6565 25.3285 31.1272 24.9279 31.5678 24.5573C32.0085 24.1867 32.4291 23.7861 32.4892 23.6659C32.5593 23.5557 32.7997 22.0834 33.02 20.4007C33.2504 18.718 33.5008 16.845 33.5809 16.244C33.661 15.6331 33.7712 14.8218 33.8212 14.4412C33.8713 14.0506 34.1017 12.3879 34.322 10.7353C34.983 5.83745 35.0231 5.54699 34.993 5.52696C34.9129 5.46686 23.5257 1.08988 22.9549 0.889562C20.6914 0.128348 18.1977 -0.152099 15.8241 0.078268ZM19.8602 2.12153C21.3825 2.39196 21.6329 2.47209 27.1612 4.59547C29.5348 5.50693 30.5563 5.89755 32.1187 6.49851C32.4191 6.6187 32.7196 6.76894 32.7797 6.81902C32.8698 6.89915 32.6194 8.97245 31.8483 14.7417L30.8067 22.5541L30.1858 23.125C29.8452 23.4355 28.1727 24.8778 26.4601 26.3301C24.7576 27.7825 22.4841 29.7155 21.4025 30.637C20.0905 31.7688 19.4195 32.2796 19.3494 32.2095C19.2493 32.1094 19.2693 24.1467 19.3695 23.9864C19.3895 23.9363 19.9904 23.9063 20.7115 23.9063H22.0034V22.3037V20.7012H17.5467H13.09V22.3037V23.8963L14.422 23.9263L15.744 23.9563L15.774 28.103C15.784 30.3866 15.764 32.2896 15.724 32.3297C15.6739 32.3798 15.1932 32.0192 14.6323 31.5384C14.0815 31.0577 12.409 29.6354 10.9267 28.3634C9.44448 27.1014 7.32128 25.2885 6.2096 24.337C5.08791 23.3754 4.17654 22.5541 4.17654 22.494C4.17654 22.4339 3.72586 18.9984 3.16501 14.8719C2.61418 10.7353 2.17352 7.21966 2.19355 7.04939L2.22359 6.74891L7.5316 4.70565C12.8797 2.65237 13.7309 2.36191 15.0329 2.12153C16.0545 1.93122 18.7685 1.94124 19.8602 2.12153Z" fill="white"/>
<path d="M16.5451 4.58532C16.0443 5.14622 15.4734 5.78724 15.2731 6.01761L14.9126 6.42826L16.2045 6.45831C16.9156 6.46832 18.0774 6.46832 18.7884 6.45831L20.0804 6.42826L18.8385 5.02602C18.1575 4.25479 17.5666 3.61377 17.5265 3.60376C17.4765 3.58372 17.0358 4.02443 16.5451 4.58532Z" fill="white"/>
<path d="M9.91514 8.46149C7.14096 9.71349 6.74036 9.93384 6.63019 10.2844C6.56008 10.4947 8.14247 17.6261 8.34277 18.0167C8.51303 18.3473 8.91363 18.4875 11.2171 18.9783L12.9898 19.3689V18.6277C12.9898 17.3757 12.5191 17.4959 17.5967 17.4959H22.0034V18.4374V19.3789L22.6343 19.2387C22.9748 19.1686 23.7961 18.9883 24.4571 18.8481C26.1997 18.4675 26.5903 18.3272 26.7505 18.0167C26.9508 17.6161 28.3229 12.518 28.383 11.937C28.4231 11.5064 28.403 11.4062 28.2027 11.2159C27.8422 10.8954 22.2137 7.17945 22.0735 7.17945C22.0434 7.17945 21.9934 7.57007 21.9833 8.05084L21.9533 8.93224L17.6067 8.96229C14.482 8.97231 13.2201 8.95228 13.13 8.87215C13.0298 8.79202 12.9898 8.51157 12.9898 7.97071C12.9898 7.3998 12.9597 7.17945 12.8696 7.18946C12.7995 7.18946 11.4675 7.76038 9.91514 8.46149Z" fill="white"/>
</svg>
