<svg width="346" height="111" viewBox="0 0 346 111" fill="none" xmlns="http://www.w3.org/2000/svg">
<path d="M8 6.83267e-07C12.4183 1.06063e-06 16 3.58172 16 8C16 12.4183 12.4183 16 8 16C3.58172 16 -1.11125e-06 12.4183 -7.15877e-07 8C-3.20509e-07 3.58172 3.58172 3.05909e-07 8 6.83267e-07ZM32.4443 6.5L32.4443 9.5L22.667 9.5L22.667 6.5L32.4443 6.5ZM52 6.5L52 9.5L42.2227 9.5L42.2227 6.5L52 6.5ZM71.5557 6.50001L71.5557 9.50001L61.7773 9.50001L61.7773 6.50001L71.5557 6.50001ZM91.1113 6.50001L91.1113 9.50001L81.333 9.50001L81.333 6.50001L91.1113 6.50001ZM110.667 6.50001L110.667 9.50001L100.889 9.50001L100.889 6.50001L110.667 6.50001ZM130.223 6.50001L130.223 9.50001L120.444 9.50001L120.444 6.50001L130.223 6.50001ZM149.777 6.50001L149.777 9.50001L140 9.50001L140 6.50001L149.777 6.50001ZM169.333 6.50001L169.333 9.50001L159.556 9.50001L159.556 6.50001L169.333 6.50001ZM188.889 6.50002L188.889 9.50002L179.111 9.50002L179.111 6.50002L188.889 6.50002ZM208.444 6.50002L208.444 9.50002L198.667 9.50002L198.667 6.50002L208.444 6.50002ZM228 6.50002L228 9.50002L218.223 9.50002L218.223 6.50002L228 6.50002ZM247.556 6.50002L247.556 9.50002L237.777 9.50002L237.777 6.50002L247.556 6.50002ZM267.111 6.50002L267.111 9.50002L257.333 9.50002L257.333 6.50002L267.111 6.50002ZM286.667 6.50002L286.667 9.50002L276.889 9.50002L276.889 6.50002L286.667 6.50002ZM306.222 6.50003L306.222 9.50003L296.444 9.50003L296.444 6.50003L306.222 6.50003ZM325.777 6.50003L325.777 9.50003L316 9.50003L316 6.50003L325.777 6.50003ZM345.333 6.50003L345.333 9.50003L335.556 9.50003L335.556 6.50003L345.333 6.50003Z" fill="#3D588A"/>
<path d="M102.499 111V38.2002H99.499V73.417H57.5361C56.3991 73.417 55.3326 72.8644 54.6768 71.9355L8.22461 6.13477L5.77344 7.86523L52.2256 73.665C53.4436 75.3903 55.4243 76.417 57.5361 76.417H99.499V111H102.499Z" fill="#3D588A"/>
</svg>
