<svg width="383" height="175" viewBox="0 0 383 175" fill="none" xmlns="http://www.w3.org/2000/svg">
<path d="M8 59C3.58173 59 3.14177e-07 62.5818 7.01733e-07 67C1.08929e-06 71.4183 3.58173 75 8 75C12.4183 75 16 71.4183 16 67C16 62.5818 12.4183 59 8 59ZM356.098 65.5L356.098 68.5L361 68.5L361 65.5L356.098 65.5ZM336.486 65.5L336.486 68.5L346.292 68.5L346.292 65.5L336.486 65.5ZM316.875 65.5L316.875 68.5L326.681 68.5L326.681 65.5L316.875 65.5ZM297.264 65.5L297.264 68.5L307.069 68.5L307.069 65.5L297.264 65.5ZM277.652 65.5L277.652 68.5L287.458 68.5L287.458 65.5L277.652 65.5ZM258.042 65.5L258.042 68.5L267.848 68.5L267.848 65.5L258.042 65.5ZM238.431 65.5L238.431 68.5L248.236 68.5L248.236 65.5L238.431 65.5ZM218.819 65.5L218.819 68.5L228.625 68.5L228.625 65.5L218.819 65.5ZM199.208 65.5L199.208 68.5L209.014 68.5L209.014 65.5L199.208 65.5ZM179.598 65.5L179.598 68.5L189.402 68.5L189.402 65.5L179.598 65.5ZM159.986 65.5L159.986 68.5L169.792 68.5L169.792 65.5L159.986 65.5ZM140.375 65.5L140.375 68.5L150.181 68.5L150.181 65.5L140.375 65.5ZM120.764 65.5L120.764 68.5L130.569 68.5L130.569 65.5L120.764 65.5ZM101.152 65.5L101.152 68.5L110.958 68.5L110.958 65.5L101.152 65.5ZM81.542 65.5L81.542 68.5L91.3477 68.5L91.3477 65.5L81.542 65.5ZM61.9307 65.5L61.9307 68.5L71.7363 68.5L71.7363 65.5L61.9307 65.5ZM42.3193 65.5L42.3193 68.5L52.125 68.5L52.125 65.5L42.3193 65.5ZM22.708 65.5L22.708 68.5L32.5137 68.5L32.5137 65.5L22.708 65.5Z" fill="#0357A5"/>
<path d="M102.737 175V100.1H99.7373V136.376H57.8164C56.6629 136.376 55.5833 135.807 54.9307 134.855L8.47461 67.1514L6 68.8486L52.457 136.554C53.6692 138.32 55.6742 139.376 57.8164 139.376H99.7373V175H102.737Z" fill="#0357A5"/>
<path d="M368 67C368 62.5817 364.418 59 360 59C355.582 59 352 62.5817 352 67C352 71.4183 355.582 75 360 75C364.418 75 368 71.4183 368 67Z" fill="#0357A5"/>
<path d="M359 0H361V67H359V0Z" fill="#0357A5"/>
<path d="M382.75 11.309L361 23.0004L361 -9.50723e-07L382.75 11.309Z" fill="#0357A5"/>
</svg>
