<svg width="361" height="116" viewBox="0 0 361 116" fill="none" xmlns="http://www.w3.org/2000/svg">
<path d="M8 116C3.58173 116 3.14177e-07 112.418 7.01733e-07 108C1.08929e-06 103.582 3.58173 100 8 100C12.4183 100 16 103.582 16 108C16 112.418 12.4183 116 8 116ZM356.098 109.5L356.098 106.5L361 106.5L361 109.5L356.098 109.5ZM336.486 109.5L336.486 106.5L346.292 106.5L346.292 109.5L336.486 109.5ZM316.875 109.5L316.875 106.5L326.681 106.5L326.681 109.5L316.875 109.5ZM297.264 109.5L297.264 106.5L307.069 106.5L307.069 109.5L297.264 109.5ZM277.652 109.5L277.652 106.5L287.458 106.5L287.458 109.5L277.652 109.5ZM258.042 109.5L258.042 106.5L267.848 106.5L267.848 109.5L258.042 109.5ZM238.431 109.5L238.431 106.5L248.236 106.5L248.236 109.5L238.431 109.5ZM218.819 109.5L218.819 106.5L228.625 106.5L228.625 109.5L218.819 109.5ZM199.208 109.5L199.208 106.5L209.014 106.5L209.014 109.5L199.208 109.5ZM179.598 109.5L179.598 106.5L189.402 106.5L189.402 109.5L179.598 109.5ZM159.986 109.5L159.986 106.5L169.792 106.5L169.792 109.5L159.986 109.5ZM140.375 109.5L140.375 106.5L150.181 106.5L150.181 109.5L140.375 109.5ZM120.764 109.5L120.764 106.5L130.569 106.5L130.569 109.5L120.764 109.5ZM101.152 109.5L101.152 106.5L110.958 106.5L110.958 109.5L101.152 109.5ZM81.542 109.5L81.542 106.5L91.3477 106.5L91.3477 109.5L81.542 109.5ZM61.9307 109.5L61.9307 106.5L71.7363 106.5L71.7363 109.5L61.9307 109.5ZM42.3193 109.5L42.3193 106.5L52.125 106.5L52.125 109.5L42.3193 109.5ZM22.708 109.5L22.708 106.5L32.5137 106.5L32.5137 109.5L22.708 109.5Z" fill="#0778DF"/>
<path d="M102.737 0V74.9004H99.7373V38.624H57.8164C56.6629 38.6242 55.5833 39.1934 54.9307 40.1445L8.47461 107.849L6 106.151L52.457 38.4463C53.6692 36.6799 55.6742 35.6242 57.8164 35.624H99.7373V0H102.737Z" fill="#0778DF"/>
</svg>
