<svg width="100" height="85" viewBox="0 0 100 85" fill="none" xmlns="http://www.w3.org/2000/svg">
<path d="M23.1383 4.51041C22.3404 7.17946 21.6312 9.84852 21.6312 10.5603C21.7199 11.272 24.8227 16.966 28.7234 23.3717L35.6383 34.9377L21.2766 35.2046L6.91489 35.3825L3.45745 38.9413L0 42.5L3.45745 46.0587L6.91489 49.6175L21.2766 49.7954L35.6383 50.0623L28.7234 61.6282C24.8227 68.034 21.7199 73.728 21.6312 74.4397C21.6312 75.1515 22.3404 77.8205 23.1383 80.4896C24.8227 85.7387 25.0887 85.9167 31.8262 83.5145C36.1702 82.0021 36.4362 81.6462 42.9078 70.703C46.5426 64.4752 49.734 59.493 50 59.493C50.266 59.493 53.4574 64.4752 57.0922 70.703C63.5638 81.6462 63.8298 82.0021 68.1738 83.5145C74.9113 85.9167 75.1773 85.7387 76.8617 80.4896C77.6596 77.8205 78.3688 75.1515 78.3688 74.4397C78.2801 73.728 75.1773 68.034 71.2766 61.6282L64.3617 50.0623L78.7234 49.7954L93.0851 49.6175L96.5426 46.0587L100 42.5L96.5426 38.9413L93.0851 35.3825L78.7234 35.2046L64.3617 34.9377L71.2766 23.3717C75.1773 16.966 78.2801 11.272 78.3688 10.5603C78.3688 9.84852 77.6596 7.17946 76.8617 4.51041C75.1773 -0.738741 74.9113 -0.916678 68.1738 1.48547C63.8298 2.99794 63.5638 3.35381 57.0922 14.297C53.4574 20.5248 50.266 25.507 50 25.507C49.734 25.507 46.5426 20.5248 42.9078 14.297C36.4362 3.35381 36.1702 2.99794 31.8262 1.48547C25.0887 -0.916678 24.8227 -0.738741 23.1383 4.51041Z" fill="white"/>
</svg>
