<svg width="78" height="85" viewBox="0 0 78 85" fill="none" xmlns="http://www.w3.org/2000/svg">
<path d="M14.8904 0.144429C14.8904 0.448027 16.8621 5.68509 19.3648 11.9088C25.1285 26.5574 26.2661 31.2632 26.7211 41.3578L27.1003 49.7068L24.8252 45.5323C21.8675 39.9916 17.2413 34.8305 11.5535 30.8078C7.23067 27.6959 1.1636 24.2805 0.0260274 24.2805C-0.201488 24.2805 1.08776 25.9502 2.90789 27.9236C8.82328 34.6028 12.4635 43.7866 13.8286 55.4751L14.3595 60.105L26.7211 72.5525C33.5466 79.3834 39.3103 85 39.462 85C40.2962 85 42.9506 74.9054 43.4056 70.1237C44.4673 58.8906 41.4338 47.0503 33.4708 30.7319C28.1621 19.8783 14.8904 -1.98075 14.8904 0.144429Z" fill="white"/>
<path d="M54.857 11.9091C50.4584 18.5123 45.6806 26.2541 44.3913 29.1383L41.8887 34.4512L44.0121 40.1437C45.2256 43.3315 46.5148 47.2023 46.894 48.7203C47.349 50.3142 47.9557 51.6045 48.1833 51.6045C49.0933 51.6045 51.8993 40.1437 52.4302 34.7548C52.9611 28.607 54.7054 22.535 59.7865 9.9357C61.8342 4.77454 63.3509 0.448272 63.1993 0.296473C63.0476 0.0687744 59.2557 5.38174 54.857 11.9091Z" fill="white"/>
<path d="M75.9404 25.191C68.8875 29.0619 62.2895 36.5 57.6634 45.6839C54.099 52.6666 51.293 62.913 51.293 68.5296V73.2354L57.6634 66.8598C63.958 60.5601 64.0338 60.4842 64.4889 55.8544C65.7781 44.1659 69.4942 34.5266 75.2579 28.1511C78.6706 24.3561 78.8981 23.5212 75.9404 25.191Z" fill="white"/>
</svg>
