<svg width="85" height="85" viewBox="0 0 85 85" fill="none" xmlns="http://www.w3.org/2000/svg">
<path d="M0 27.9517V55.9854L6.53846 49.4469L13.0769 42.9084V28.0334V13.0767H28.0337H42.9087L49.4471 6.53824L55.9856 -0.000224575H27.9519H0V27.9517Z" fill="#786B52"/>
<path d="M78.2166 35.7981L71.9233 42.0913V57.0481V71.9231H56.9666H42.0916L35.5531 78.4615L29.0146 85H57.0483H85.0002V57.2115C85.0002 41.9279 85.0002 29.4231 85.0002 29.4231C85.0002 29.4231 81.731 32.2837 78.2166 35.7981Z" fill="#786B52"/>
<path d="M34.0817 34.1635L0 68.2452V76.6635V85H8.41827H16.7548L50.9183 50.8365L85 16.7548V8.33654V1.19209e-06H76.5817H68.2452L34.0817 34.1635Z" fill="white"/>
</svg>
