<svg width="104" height="85" viewBox="0 0 104 85" fill="none" xmlns="http://www.w3.org/2000/svg">
<path d="M37.946 2.95975C37.1871 4.70529 36.8835 6.37493 37.263 6.98207C38.4773 9.03118 51.4549 24.2856 51.9862 24.2856C52.6692 24.2856 66.3299 7.89279 66.8612 6.45082C67.0889 5.84368 66.5576 4.17404 65.6469 2.65618L63.9773 -7.00951e-05H51.6826H39.3121L37.946 2.95975Z" fill="white"/>
<path d="M3.03571 20.8704C4.70536 22.3124 8.80357 24.9686 12.1429 26.7141C17.3036 29.4463 19.125 29.9775 24.058 30.357L29.9018 30.7365L25.8036 36.2008C23.5268 39.2365 21.6295 41.9686 21.6295 42.3481C21.6295 42.9552 34.9107 48.5713 36.4286 48.5713C36.8839 48.5713 38.5536 43.79 40.1473 37.9463L43.183 27.2454L38.7054 22.7677L34.2277 18.2141H17.0759L0 18.29L3.03571 20.8704Z" fill="white"/>
<path d="M65.2677 22.7677L60.79 27.2454L63.8258 37.9463C65.4195 43.79 67.0891 48.5713 67.5445 48.5713C69.0624 48.5713 82.3436 42.9552 82.3436 42.3481C82.3436 41.9686 80.4463 39.2365 78.1695 36.2008L74.0713 30.7365L79.915 30.357C84.8481 29.9775 86.6695 29.4463 91.8302 26.7141C95.1695 24.9686 99.2677 22.3124 100.937 20.8704L103.973 18.29L86.8972 18.2141H69.7454L65.2677 22.7677Z" fill="white"/>
<path d="M44.1698 52.5179C41.7412 64.7366 39.768 75.1339 39.8439 75.5893C39.8439 76.5759 50.7725 85 51.9868 85C53.5046 85 64.1296 76.5 64.1296 75.2098C64.1296 73.7679 55.6296 30.8884 55.2502 30.433C55.1743 30.2812 54.3395 30.7366 53.5046 31.4955C52.0627 32.7857 51.9109 32.7857 50.6207 31.6473C49.8618 30.8884 49.027 30.3571 48.8752 30.3571C48.7234 30.3571 46.5984 40.375 44.1698 52.5179Z" fill="white"/>
</svg>
