<svg width="1500" height="244" viewBox="0 0 1500 244" fill="none" xmlns="http://www.w3.org/2000/svg">
<g clip-path="url(#clip0_270_2978)">
<path d="M148.523 236.21H167.331L173.325 191.077H154.518L148.523 236.21Z" fill="#786B52"/>
<path d="M283.391 65.23H264.584L265.542 67.9096L278.91 68.8666L283.391 65.23Z" fill="#786B52"/>
<path d="M279.504 241.512H260.696L261.003 235.617L280.174 235.999L279.504 241.512Z" fill="#786B52"/>
<path d="M530.567 191.077H549.374L543.379 236.21H524.572" fill="#786B52"/>
<path d="M992.684 223.175C992.684 223.175 1007.66 225.625 1011.49 223.175C1001 231.042 985.043 242.928 985.043 242.928C978.854 244.344 972.424 244.344 966.235 242.928C974.93 236.459 992.684 223.175 992.684 223.175Z" fill="#786B52"/>
<path d="M875.225 120.584H894.032L865.458 132.202H846.65L875.225 120.584Z" fill="#786B52"/>
<path d="M1125.35 76.5036H1114.2V112.468H1125.35V76.5036Z" fill="#786B52"/>
<path d="M1017.54 186.503H1028.69L1028.77 209.624L1019.73 205.356L1017.54 186.503Z" fill="#786B52"/>
<path d="M1179.2 64.1581H1198.01L1183.71 79.6809L1175.45 80.1977L1179.2 64.1581Z" fill="#786B52"/>
<path d="M1182.14 0H1163.33V35.2564H1182.14V0Z" fill="#786B52"/>
<path d="M1320.68 125.522H1339.49L1367.35 113.176H1348.55L1320.68 125.522Z" fill="#786B52"/>
<path d="M1351.02 187.919H1369.82L1352.91 215.098L1337.23 216.84L1351.02 187.919Z" fill="#786B52"/>
<path d="M1375.36 186.503H1394.17L1397 222.391L1381.89 215.041L1375.36 186.503Z" fill="#786B52"/>
<path d="M1490.83 76.5036H1472.02V112.468H1490.83V76.5036Z" fill="#786B52"/>
<path d="M35.0293 34.2036C35.3067 26.4612 33.8611 18.7537 30.7967 11.6373C27.9622 5.76123 23.9786 2.35427 18.8076 1.4164H79.481C74.5398 2.36065 70.6008 5.7102 67.6642 11.465C64.7276 17.2199 63.2529 24.7994 63.2401 34.2036V218.601H120.696C133.873 218.601 143.34 217.835 149.098 216.304C154.519 214.969 159.464 212.16 163.386 208.189C167.795 203.212 171.156 197.399 173.268 191.096L167.254 236.229H19.4971C24.4383 235.285 28.2687 231.578 30.9882 225.109C33.9119 217.407 35.2915 209.206 35.0484 200.973L35.0293 34.2036Z" fill="#786B52"/>
<path d="M279.503 241.512C264.965 241.848 250.637 237.994 238.231 230.41C226.443 222.991 217.016 212.368 211.054 199.786C204.593 186.316 201.317 171.542 201.478 156.606C201.384 140.805 204.881 125.19 211.705 110.937C218.029 97.293 228.055 85.695 240.644 77.4606C253.257 69.6877 267.746 65.4827 282.563 65.2939C297.38 65.1051 311.971 68.9398 324.779 76.3887C336.66 83.7912 346.197 94.4105 352.281 107.013C358.872 120.572 362.197 135.484 361.991 150.557C362.101 166.486 358.473 182.219 351.4 196.494C344.967 210.027 334.894 221.505 322.308 229.645C309.492 237.662 294.621 241.785 279.503 241.512ZM285.843 224.592C295.179 224.781 304.268 221.585 311.43 215.596C319.018 208.994 324.787 200.559 328.188 191.096C332.223 180.513 334.256 169.271 334.182 157.945C334.284 145.078 331.823 132.319 326.943 120.411C322.699 109.581 315.781 100 306.833 92.5623C298.543 85.716 288.093 82.027 277.339 82.15C268.517 82.0388 259.903 84.8299 252.825 90.0932C245.649 95.3759 239.827 103.421 235.358 114.229C230.887 125.076 228.608 136.701 228.655 148.433C228.576 161.432 231.096 174.317 236.067 186.33C240.324 197.233 247.275 206.879 256.272 214.371C264.625 221.138 275.092 224.755 285.843 224.592Z" fill="#786B52"/>
<path d="M411.077 34.2036C411.355 26.4612 409.909 18.7537 406.845 11.6373C404.023 5.76761 400.026 2.36065 394.855 1.4164H455.452C450.511 2.36065 446.572 5.7102 443.636 11.465C440.699 17.2199 439.231 24.7994 439.231 34.2036V218.601H496.686C509.863 218.601 519.33 217.835 525.089 216.304C530.509 214.969 535.455 212.16 539.376 208.189C543.786 203.212 547.147 197.399 549.258 191.096L543.264 236.229H395.564C400.505 235.285 404.336 231.578 407.055 225.109C409.979 217.407 411.359 209.206 411.115 200.973L411.077 34.2036Z" fill="#786B52"/>
<path d="M673.191 34.5482C673.458 26.7336 671.953 18.9598 668.786 11.8096C665.837 5.82504 661.662 2.36067 656.261 1.41641H745.164C757.061 1.12623 768.863 3.60305 779.638 8.65143C788.865 12.9904 796.64 19.9033 802.026 28.5573C807.262 37.2842 809.943 47.3043 809.764 57.4782C809.864 70.5717 805.515 83.3118 797.43 93.615C789.842 103.903 778.605 110.901 766.021 113.176C776.421 114.239 786.37 117.971 794.902 124.01C803.21 129.829 809.985 137.571 814.647 146.576C819.46 155.834 821.884 166.147 821.7 176.578C821.516 187.009 818.73 197.23 813.594 206.313C808.097 215.791 799.94 223.45 790.133 228.343C779.248 233.795 767.2 236.521 755.027 236.286H657.352C662.523 235.349 666.469 231.865 669.169 225.874C671.87 219.883 673.229 212.074 673.229 202.427L673.191 34.5482ZM738.461 106.133C750.91 106.133 760.901 101.839 768.434 93.2513C775.967 84.6637 779.733 73.4412 779.733 59.5836C779.894 54.0756 778.857 48.5983 776.695 43.5294C774.532 38.4604 771.296 33.9205 767.208 30.2225C758.678 22.506 747.49 18.3902 735.99 18.7383H701.766V106.171L738.461 106.133ZM744.456 218.601C759.483 218.601 771.064 214.837 779.197 207.308C787.33 199.78 791.391 188.602 791.378 173.774C791.378 158.462 786.788 146.244 777.608 137.121C768.427 127.997 756.202 123.41 740.932 123.359H701.766V218.563L744.456 218.601Z" fill="#786B52"/>
<path d="M865.457 132.221C862.468 126.192 860.896 119.56 860.861 112.832C860.91 104.199 863.82 95.8266 869.134 89.0213C875.19 81.2244 883.234 75.2011 892.423 71.5845C903.367 67.1626 915.094 65.0011 926.897 65.23C943.584 65.23 956.576 69.6386 965.871 78.4559C975.166 87.2732 979.813 99.4336 979.813 114.937V191.096C979.813 201.202 982.105 209.19 986.689 215.06C988.945 217.952 991.861 220.262 995.193 221.797C998.525 223.332 1002.18 224.047 1005.84 223.884C1007.74 223.855 1009.63 223.618 1011.47 223.175L985.023 242.928C977.941 241.732 971.44 238.265 966.503 233.052C961.743 228.629 958.477 222.836 957.157 216.476C952.446 224.663 945.2 231.099 936.511 234.813C926.497 239.381 915.592 241.669 904.585 241.512C890.706 241.512 879.419 237.926 870.724 230.755C866.51 227.426 863.133 223.158 860.861 218.293C858.59 213.428 857.488 208.1 857.643 202.734C857.643 189.106 865.757 176.703 881.985 165.525C898.214 154.347 922.204 145.243 953.958 138.212V119.875C953.958 106.962 951.079 97.1495 945.321 90.4377C939.563 83.7258 931.263 80.3763 920.423 80.389C909.609 80.389 901.022 82.6795 894.664 87.2604C888.306 91.8413 885.114 97.66 885.088 104.716C884.98 108.283 885.833 111.813 887.559 114.937C888.925 117.526 891.184 119.532 893.917 120.584L865.457 132.221ZM953.997 152.72C930.223 158.143 912.641 164.491 901.252 171.765C889.863 179.038 884.162 187.734 884.15 197.853C884.016 201.496 884.691 205.123 886.125 208.475C887.558 211.827 889.716 214.821 892.442 217.242C898.265 222.302 905.799 224.951 913.509 224.649C923.836 224.739 933.85 221.111 941.72 214.428C949.956 207.614 954.073 199.384 954.073 189.737L953.997 152.72Z" fill="#786B52"/>
<path d="M1028.67 186.503C1038.08 212.368 1053.84 225.3 1075.96 225.3C1086.53 225.3 1094.99 223.124 1101.35 218.773C1104.38 216.83 1106.86 214.136 1108.54 210.952C1110.21 207.769 1111.04 204.206 1110.93 200.609C1110.92 194.716 1108.8 189.022 1104.93 184.57C1099.61 178.729 1093.28 173.892 1086.24 170.291L1069.66 161.486C1054.6 153.486 1044.31 145.964 1038.78 138.92C1033.2 131.656 1030.28 122.697 1030.51 113.54C1030.35 107.052 1031.59 100.606 1034.15 94.6405C1036.71 88.6753 1040.52 83.3313 1045.33 78.9727C1055.21 69.7982 1068.03 65.2173 1083.79 65.23C1100.02 65.23 1113.89 68.9879 1125.41 76.5036V112.526C1115.29 91.6117 1101.31 81.1547 1083.44 81.1547C1075.56 80.8861 1067.82 83.3773 1061.57 88.1983C1058.81 90.2306 1056.57 92.8877 1055.04 95.9519C1053.5 99.016 1052.72 102.4 1052.74 105.827C1052.55 110.253 1053.59 114.646 1055.75 118.517C1058.35 122.433 1061.7 125.791 1065.61 128.393C1072.93 133.302 1080.53 137.776 1088.37 141.791C1102.96 149.307 1112.96 155.304 1118.36 159.783C1123.41 163.813 1127.55 168.852 1130.54 174.578C1133.33 180.404 1134.71 186.802 1134.58 193.259C1134.58 207.844 1129.35 219.539 1118.89 228.343C1108.44 237.148 1094.03 241.556 1075.67 241.569C1066.78 241.57 1057.94 240.327 1049.39 237.875C1041.9 235.948 1034.88 232.53 1028.75 227.826L1028.67 186.503Z" fill="#786B52"/>
<path d="M1171.91 112.124C1171.91 101.788 1170.67 94.5018 1168.19 90.2654C1165.72 86.0291 1161.43 83.9109 1155.32 83.9109H1151.49L1198.07 64.1773V205.547C1198.07 214.479 1199.35 221.593 1201.9 226.889C1202.87 229.248 1204.41 231.333 1206.38 232.962C1208.34 234.59 1210.68 235.712 1213.18 236.229H1156.74C1161.68 235.285 1165.44 232.05 1168.02 226.525C1170.82 219.87 1172.12 212.684 1171.85 205.471L1171.91 112.124ZM1163.79 17.6282C1163.71 15.2733 1164.12 12.9274 1165 10.7417C1165.88 8.55595 1167.21 6.57896 1168.9 4.9382C1172.57 1.75214 1177.27 -0.00217819 1182.14 -0.00217819C1187 -0.00217819 1191.7 1.75214 1195.37 4.9382C1197.06 6.57896 1198.39 8.55595 1199.27 10.7417C1200.15 12.9274 1200.57 15.2733 1200.48 17.6282C1200.54 22.2022 1198.83 26.6217 1195.71 29.9736C1192.04 33.3703 1187.22 35.2572 1182.22 35.2572C1177.22 35.2572 1172.4 33.3703 1168.73 29.9736C1165.52 26.6676 1163.75 22.2325 1163.79 17.6282Z" fill="#786B52"/>
<path d="M1339.47 125.522C1340.56 121.861 1341.04 118.046 1340.89 114.229C1341.05 110.107 1340.36 105.995 1338.87 102.148C1337.38 98.2999 1335.12 94.797 1332.23 91.8541C1329.34 88.9849 1325.89 86.737 1322.1 85.2491C1318.31 83.7613 1314.26 83.0648 1310.19 83.2027C1296.32 83.2027 1284.98 89.3149 1276.15 101.539C1267.33 113.763 1262.92 129.548 1262.92 148.892C1262.76 161.428 1265.04 173.875 1269.62 185.546C1273.52 195.815 1280.14 204.832 1288.77 211.634C1297.04 218.016 1307.24 221.392 1317.69 221.204C1336.27 221.204 1353.67 210.154 1369.9 188.053C1365.89 204.743 1358.54 217.848 1347.86 227.367C1337.48 236.758 1323.93 241.861 1309.94 241.646C1296.51 241.964 1283.28 238.416 1271.82 231.425C1260.93 224.523 1252.28 214.6 1246.93 202.868C1240.97 189.697 1238.01 175.365 1238.29 160.912C1238.05 143.946 1241.6 127.14 1248.69 111.722C1254.88 97.9133 1264.77 86.0831 1277.26 77.5372C1289.07 69.5135 1303.03 65.2678 1317.31 65.364C1331.66 65.364 1343.42 69.7726 1352.59 78.5899C1361.76 87.4072 1366.69 98.9807 1367.39 113.31L1339.47 125.522Z" fill="#786B52"/>
<path d="M1394.15 186.503C1403.54 212.368 1419.3 225.3 1441.41 225.3C1452.01 225.3 1460.48 223.124 1466.83 218.773C1469.86 216.83 1472.33 214.136 1474.01 210.952C1475.69 207.769 1476.51 204.206 1476.4 200.609C1476.39 194.718 1474.26 189.027 1470.41 184.57C1465.09 178.729 1458.75 173.892 1451.72 170.291L1435.13 161.486C1420.08 153.486 1409.79 145.964 1404.26 138.92C1398.66 131.662 1395.73 122.701 1395.97 113.54C1395.81 107.052 1397.05 100.606 1399.61 94.6413C1402.16 88.6763 1405.98 83.3321 1410.79 78.9727C1420.67 69.7982 1433.49 65.2173 1449.25 65.23C1465.46 65.23 1479.33 68.9879 1490.86 76.5036V112.526C1480.75 91.6117 1466.76 81.1547 1448.88 81.1547C1440.99 80.8926 1433.26 83.383 1427.01 88.1983C1424.26 90.2348 1422.02 92.8932 1420.49 95.9568C1418.96 99.0203 1418.18 102.402 1418.2 105.827C1418.01 110.25 1419.05 114.64 1421.19 118.517C1423.79 122.437 1427.15 125.796 1431.07 128.393C1438.38 133.31 1445.98 137.785 1453.82 141.791C1468.39 149.307 1478.39 155.304 1483.82 159.783C1488.86 163.806 1493.01 168.848 1495.98 174.578C1498.77 180.403 1500.16 186.801 1500.04 193.259C1500.04 207.844 1494.8 219.539 1484.33 228.343C1473.86 237.148 1459.46 241.556 1441.13 241.569C1432.24 241.57 1423.39 240.327 1414.85 237.875C1407.36 235.954 1400.34 232.535 1394.2 227.826L1394.15 186.503Z" fill="#786B52"/>
<path d="M16.2217 34.2036C16.4991 26.4612 15.0535 18.7537 11.9891 11.6373C9.15465 5.76123 5.17103 2.35427 0 1.4164H60.6734C55.7322 2.36065 51.7933 5.7102 48.8566 11.465C45.92 17.2199 44.4453 24.7994 44.4325 34.2036V218.601H101.888C115.052 218.601 124.52 217.835 130.291 216.304C135.71 214.964 140.653 212.156 144.578 208.189C148.988 203.216 152.343 197.401 154.441 191.096L148.447 236.229H0.689442C5.63065 235.285 9.46104 231.578 12.1806 225.109C15.1043 217.407 16.4839 209.206 16.2409 200.973L16.2217 34.2036Z" fill="#FAC356"/>
<path d="M260.697 241.512C246.158 241.848 231.83 237.994 219.424 230.41C207.637 222.991 198.21 212.368 192.248 199.786C185.787 186.316 182.51 171.542 182.672 156.606C182.578 140.805 186.075 125.19 192.899 110.937C199.222 97.293 209.248 85.695 221.837 77.4606C234.451 69.6877 248.939 65.4827 263.756 65.2939C278.574 65.1051 293.164 68.9398 305.972 76.3887C317.854 83.7912 327.39 94.4105 333.474 107.013C340.065 120.572 343.391 135.484 343.184 150.557C343.294 166.486 339.667 182.219 332.593 196.494C326.16 210.027 316.087 221.505 303.501 229.645C290.685 237.662 275.814 241.785 260.697 241.512ZM267.036 224.592C276.372 224.781 285.462 221.585 292.623 215.596C300.211 208.994 305.981 200.559 309.381 191.096C313.417 180.513 315.45 169.271 315.376 157.945C315.477 145.078 313.016 132.319 308.136 120.411C303.892 109.581 296.974 100 288.027 92.5623C279.746 85.7246 269.312 82.0361 258.571 82.15C249.749 82.0388 241.135 84.8299 234.056 90.0932C226.881 95.3759 221.059 103.421 216.59 114.229C212.118 125.076 209.84 136.701 209.887 148.433C209.807 161.432 212.327 174.317 217.298 186.33C221.529 197.222 228.446 206.868 237.408 214.371C245.776 221.15 256.265 224.769 267.036 224.592Z" fill="#FAC356"/>
<path d="M392.251 34.2036C392.528 26.4612 391.083 18.7537 388.018 11.6373C385.209 5.76761 381.213 2.36065 376.029 1.4164H436.703C431.761 2.36065 427.822 5.7102 424.886 11.465C421.949 17.2199 420.481 24.7994 420.481 34.2036V218.601H477.937C491.113 218.601 500.581 217.835 506.339 216.304C511.76 214.969 516.705 212.16 520.627 208.189C525.036 203.212 528.397 197.399 530.509 191.096L524.514 236.229H376.757C381.679 235.291 385.509 231.578 388.248 225.109C391.152 217.403 392.512 209.202 392.251 200.973V34.2036Z" fill="#FAC356"/>
<path d="M654.383 34.5482C654.651 26.7336 653.145 18.9598 649.978 11.8096C647.029 5.82505 642.854 2.36068 637.453 1.41642H726.356C738.222 1.13412 749.99 3.61091 760.734 8.65144C769.97 12.9846 777.753 19.8984 783.142 28.5573C788.351 37.2921 791.005 47.3117 790.803 57.4782C790.903 70.5718 786.554 83.3118 778.469 93.615C770.881 103.903 759.644 110.901 747.06 113.176C757.513 114.213 767.518 117.946 776.094 124.01C784.402 129.829 791.177 137.571 795.84 146.576C800.656 155.837 803.082 166.153 802.898 176.588C802.714 187.023 799.926 197.247 794.786 206.332C789.289 215.81 781.133 223.469 771.325 228.362C760.44 233.814 748.393 236.54 736.22 236.306H638.545C643.716 235.368 647.661 231.884 650.362 225.893C653.062 219.902 654.422 212.093 654.422 202.447L654.383 34.5482ZM719.749 106.133C732.198 106.133 742.189 101.839 749.722 93.2513C757.255 84.6637 761.021 73.4412 761.021 59.5836C761.168 54.0757 760.123 48.601 757.958 43.5337C755.793 38.4665 752.559 33.9259 748.477 30.2225C739.947 22.506 728.759 18.3902 717.259 18.7383H682.958V106.171L719.749 106.133ZM725.744 218.601C740.771 218.601 752.352 214.837 760.485 207.308C768.618 199.78 772.679 188.614 772.666 173.813C772.666 158.5 768.076 146.283 758.896 137.159C749.715 128.036 737.484 123.448 722.201 123.397H682.958V218.601H725.744Z" fill="#FAC356"/>
<path d="M846.632 132.221C843.657 126.188 842.092 119.558 842.054 112.832C842.109 104.197 845.026 95.8241 850.347 89.0213C856.398 81.2203 864.444 75.1962 873.636 71.5845C884.58 67.1626 896.307 65.0011 908.109 65.23C924.797 65.23 937.788 69.6386 947.084 78.4559C956.379 87.2732 961.026 99.4336 961.026 114.937V191.096C961.026 201.202 963.318 209.19 967.902 215.06C970.157 217.952 973.073 220.262 976.405 221.797C979.737 223.332 983.388 224.047 987.054 223.884C988.951 223.855 990.839 223.618 992.684 223.175L966.235 242.928C959.14 241.759 952.619 238.312 947.658 233.109C942.898 228.687 939.632 222.894 938.312 216.534C933.601 224.721 926.355 231.156 917.666 234.87C907.652 239.438 896.747 241.726 885.74 241.569C871.861 241.569 860.574 237.984 851.879 230.812C847.669 227.481 844.295 223.213 842.027 218.348C839.759 213.483 838.66 208.156 838.818 202.791C838.818 189.163 846.932 176.76 863.16 165.582C879.388 154.404 903.379 145.3 935.133 138.269V119.933C935.133 107.02 932.254 97.207 926.495 90.4951C920.737 83.7833 912.438 80.4337 901.598 80.4465C890.783 80.4465 882.197 82.7369 875.838 87.3178C869.48 91.8987 866.288 97.7174 866.262 104.774C866.154 108.34 867.008 111.871 868.733 114.995C870.097 117.578 872.348 119.583 875.072 120.641L846.632 132.221ZM935.19 152.72C911.416 158.143 893.835 164.491 882.446 171.765C871.057 179.038 865.343 187.715 865.305 197.795C865.172 201.438 865.846 205.066 867.28 208.418C868.713 211.77 870.871 214.763 873.598 217.184C879.42 222.244 886.955 224.894 894.665 224.592C904.952 224.654 914.92 221.027 922.761 214.371C930.996 207.557 935.114 199.327 935.114 189.68L935.19 152.72Z" fill="#FAC356"/>
<path d="M1017.52 186.503C1026.93 212.368 1042.7 225.3 1064.81 225.3C1075.38 225.3 1083.85 223.124 1090.21 218.773C1093.24 216.83 1095.71 214.136 1097.39 210.952C1099.07 207.769 1099.89 204.206 1099.78 200.609C1099.78 194.716 1097.65 189.022 1093.79 184.57C1088.46 178.729 1082.13 173.892 1075.09 170.291L1058.51 161.486C1043.46 153.486 1033.16 145.964 1027.64 138.92C1022.05 131.656 1019.13 122.697 1019.36 113.54C1019.2 107.053 1020.44 100.608 1022.99 94.643C1025.55 88.6779 1029.36 83.3331 1034.17 78.9727C1044.05 69.7982 1056.87 65.2173 1072.62 65.23C1088.85 65.23 1102.72 68.9879 1114.24 76.5036V112.526C1104.05 91.5734 1090.02 81.0973 1072.14 81.0973C1064.25 80.8323 1056.51 83.3228 1050.25 88.1409C1047.5 90.1774 1045.27 92.8358 1043.73 95.8994C1042.2 98.9629 1041.42 102.345 1041.44 105.769C1041.25 110.196 1042.29 114.588 1044.45 118.459C1047.05 122.375 1050.4 125.733 1054.31 128.335C1061.63 133.244 1069.23 137.718 1077.07 141.734C1091.66 149.249 1101.66 155.247 1107.06 159.725C1112.11 163.755 1116.26 168.795 1119.24 174.521C1122.03 180.347 1123.41 186.745 1123.28 193.202C1123.28 207.787 1118.05 219.481 1107.6 228.286C1097.14 237.09 1082.77 241.499 1064.48 241.512C1055.6 241.513 1046.75 240.269 1038.21 237.818C1030.72 235.891 1023.7 232.473 1017.56 227.769L1017.52 186.503Z" fill="#FAC356"/>
<path d="M1153.1 112.124C1153.1 101.788 1151.86 94.5018 1149.39 90.2654C1146.91 86.0291 1142.62 83.9109 1136.52 83.9109H1132.69L1179.26 64.1773V205.547C1179.26 214.479 1180.54 221.593 1183.09 226.889C1184.06 229.25 1185.6 231.337 1187.57 232.965C1189.53 234.594 1191.87 235.715 1194.37 236.229H1137.93C1142.87 235.285 1146.63 232.05 1149.21 226.525C1152.01 219.87 1153.32 212.684 1153.04 205.471L1153.1 112.124ZM1144.92 17.6282C1144.84 15.2733 1145.25 12.9274 1146.13 10.7417C1147.02 8.55595 1148.35 6.57896 1150.04 4.9382C1153.71 1.75214 1158.41 -0.00217819 1163.27 -0.00217819C1168.13 -0.00217819 1172.83 1.75214 1176.51 4.9382C1178.2 6.57896 1179.53 8.55595 1180.41 10.7417C1181.29 12.9274 1181.7 15.2733 1181.62 17.6282C1181.67 22.2022 1179.96 26.6217 1176.85 29.9736C1173.18 33.3703 1168.36 35.2572 1163.36 35.2572C1158.35 35.2572 1153.54 33.3703 1149.86 29.9736C1146.66 26.6676 1144.88 22.2325 1144.92 17.6282Z" fill="#FAC356"/>
<path d="M1320.66 125.522C1321.75 121.861 1322.23 118.046 1322.08 114.229C1322.24 110.11 1321.56 106 1320.08 102.152C1318.6 98.3046 1316.35 94.8002 1313.46 91.8541C1310.57 88.9849 1307.12 86.737 1303.33 85.2491C1299.54 83.7613 1295.49 83.0648 1291.42 83.2027C1277.55 83.2027 1266.2 89.3149 1257.38 101.539C1248.56 113.763 1244.14 129.548 1244.11 148.892C1243.96 161.428 1246.23 173.875 1250.81 185.546C1254.71 195.815 1261.33 204.832 1269.97 211.634C1278.24 218.016 1288.44 221.392 1298.88 221.204C1317.46 221.204 1334.86 210.154 1351.09 188.053C1347.1 204.743 1339.75 217.848 1329.05 227.367C1318.68 236.758 1305.12 241.861 1291.13 241.646C1277.71 241.964 1264.48 238.416 1253.02 231.425C1242.12 224.523 1233.47 214.6 1228.12 202.868C1222.16 189.697 1219.21 175.365 1219.48 160.912C1219.24 143.946 1222.79 127.14 1229.88 111.722C1236.07 97.9133 1245.96 86.0831 1258.45 77.5372C1270.26 69.5135 1284.23 65.2678 1298.5 65.364C1312.84 65.364 1324.6 69.7726 1333.78 78.5899C1342.96 87.4072 1347.89 98.9807 1348.58 113.31L1320.66 125.522Z" fill="#FAC356"/>
<path d="M1375.34 186.503C1384.75 212.368 1400.51 225.3 1422.61 225.3C1433.19 225.3 1441.66 223.124 1448 218.773C1451.03 216.832 1453.51 214.137 1455.19 210.954C1456.87 207.77 1457.69 204.206 1457.58 200.609C1457.57 194.718 1455.44 189.027 1451.58 184.57C1446.26 178.724 1439.92 173.887 1432.87 170.291L1416.31 161.486C1401.25 153.486 1390.96 145.964 1385.43 138.92C1379.83 131.662 1376.91 122.701 1377.14 113.54C1376.98 107.052 1378.22 100.606 1380.78 94.6413C1383.34 88.6763 1387.15 83.3321 1391.96 78.9727C1401.82 69.7982 1414.63 65.2173 1430.4 65.23C1446.64 65.23 1460.52 68.9879 1472.04 76.5036V112.526C1461.93 91.6117 1447.93 81.1547 1430.06 81.1547C1422.17 80.8926 1414.44 83.383 1408.19 88.1983C1405.43 90.2348 1403.2 92.8932 1401.67 95.9568C1400.13 99.0203 1399.35 102.402 1399.38 105.827C1399.19 110.25 1400.22 114.64 1402.36 118.517C1404.96 122.437 1408.32 125.796 1412.25 128.393C1419.55 133.31 1427.15 137.785 1435 141.791C1449.57 149.307 1459.56 155.304 1464.99 159.783C1470.04 163.806 1474.18 168.848 1477.15 174.578C1479.95 180.403 1481.34 186.801 1481.21 193.259C1481.21 207.844 1475.98 219.539 1465.51 228.343C1455.04 237.148 1440.64 241.556 1422.3 241.569C1413.41 241.57 1404.57 240.327 1396.02 237.875C1388.53 235.954 1381.51 232.535 1375.38 227.826L1375.34 186.503Z" fill="#FAC356"/>
</g>
<defs>
<clipPath id="clip0_270_2978">
<rect width="1500" height="244" fill="white"/>
</clipPath>
</defs>
</svg>
