<svg width="25" height="33" viewBox="0 0 25 33" fill="none" xmlns="http://www.w3.org/2000/svg">
<path d="M4.50907 5.44243C4.54461 4.37789 4.34437 3.31891 3.92334 2.34488C3.53115 1.52964 2.97597 1.05771 2.25781 0.929077H14.0794C15.6614 0.889547 17.2306 1.22695 18.6634 1.91466C19.8904 2.50573 20.9243 3.44744 21.6405 4.62632C22.3367 5.81514 22.6931 7.18011 22.6693 8.56605C22.6826 10.3497 22.1044 12.0852 21.0292 13.4888C20.0203 14.8902 18.526 15.8435 16.8527 16.1535C18.2357 16.2982 19.5586 16.8066 20.6931 17.6293C21.7978 18.4219 22.6987 19.4767 23.3187 20.7033C23.9586 21.9645 24.281 23.3693 24.2565 24.7903C24.2321 26.2113 23.8616 27.6036 23.1786 28.8409C22.4477 30.1321 21.3631 31.1755 20.059 31.842C18.6116 32.5846 17.0096 32.956 15.3909 32.9241H2.40297C3.09057 32.7963 3.6152 32.3218 3.97427 31.5057C4.33335 30.6896 4.51417 29.6258 4.51417 28.3116L4.50907 5.44243ZM13.1881 15.194C14.8434 15.194 16.1719 14.6091 17.1736 13.4392C18.1753 12.2694 18.6761 10.7406 18.6761 8.85286C18.6975 8.10253 18.5596 7.35639 18.2721 6.66588C17.9845 5.97537 17.5542 5.35692 17.0106 4.85316C15.8764 3.80199 14.3887 3.24132 12.8596 3.28874H8.30868V15.1992L13.1881 15.194ZM13.9852 30.5149C15.9835 30.5149 17.5233 30.0021 18.6048 28.9765C19.6863 27.951 20.2262 26.4283 20.2245 24.4084C20.2245 22.3225 19.6142 20.6582 18.3935 19.4153C17.1728 18.1725 15.5471 17.5476 13.5166 17.5406H8.30868V30.5096L13.9852 30.5149Z" fill="#BD8C2A"/>
<path d="M2.50898 5.44192C2.54453 4.37746 2.34429 3.31857 1.92327 2.34461C1.5311 1.52943 0.975949 1.05754 0.257812 0.928919H12.079C13.6567 0.890466 15.2216 1.22784 16.6502 1.91443C17.8783 2.50466 18.9131 3.44641 19.6297 4.62588C20.3223 5.81569 20.6752 7.18048 20.6483 8.5653C20.6616 10.3488 20.0834 12.0842 19.0083 13.4876C17.9993 14.889 16.5052 15.8422 14.8319 16.1522C16.2219 16.2934 17.5522 16.8019 18.6925 17.6278C19.7972 18.4204 20.6981 19.4751 21.318 20.7017C21.9584 21.9631 22.281 23.3682 22.2565 24.7896C22.2321 26.211 21.8613 27.6037 21.178 28.8412C20.4471 30.1323 19.3625 31.1756 18.0584 31.8421C16.6111 32.5846 15.0091 32.9559 13.3905 32.9241H0.402954C1.09053 32.7963 1.61514 32.3218 1.97421 31.5058C2.33328 30.6897 2.51408 29.626 2.51408 28.312L2.50898 5.44192ZM11.2005 15.1927C12.8558 15.1927 14.1842 14.6078 15.1859 13.4381C16.1875 12.2684 16.6884 10.7397 16.6884 8.85209C16.7078 8.10184 16.5689 7.35611 16.281 6.66588C15.9932 5.97564 15.5631 5.35716 15.0203 4.8527C13.8862 3.80161 12.3985 3.24098 10.8694 3.2884H6.30848V15.1979L11.2005 15.1927ZM11.9976 30.5124C13.9958 30.5124 15.5356 29.9997 16.6171 28.9742C17.6985 27.9487 18.2384 26.4279 18.2367 24.4117C18.2367 22.3259 17.6263 20.6617 16.4057 19.4189C15.185 18.1762 13.5586 17.5513 11.5264 17.5444H6.30848V30.5124H11.9976Z" fill="#FAC356"/>
</svg>
