<svg width="24" height="32" viewBox="0 0 24 32" fill="none" xmlns="http://www.w3.org/2000/svg">
<path d="M18.0923 15.4971C19.9795 15.9543 21.4291 16.8686 22.441 18.24C23.4803 19.581 24 21.3181 24 23.4514C24 26.1943 23.0838 28.3124 21.2513 29.8057C19.4462 31.2686 16.7658 32 13.2103 32H0V0H12.3897C15.5897 0 18.065 0.716191 19.8154 2.14857C21.5932 3.58095 22.4821 5.60762 22.4821 8.22857C22.4821 9.99619 22.0855 11.5048 21.2923 12.7543C20.5265 13.9733 19.4598 14.8876 18.0923 15.4971ZM3.0359 2.78857V14.4H12.1846C14.5094 14.4 16.3009 13.9124 17.559 12.9371C18.8171 11.9314 19.4462 10.4838 19.4462 8.59429C19.4462 6.70476 18.8171 5.27238 17.559 4.29714C16.3009 3.29143 14.5094 2.78857 12.1846 2.78857H3.0359ZM13.1692 29.2114C15.7402 29.2114 17.6821 28.7238 18.9949 27.7486C20.3077 26.7733 20.9641 25.2495 20.9641 23.1771C20.9641 19.1848 18.3658 17.1886 13.1692 17.1886H3.0359V29.2114H13.1692Z" fill="#FAC356"/>
</svg>
