<svg width="35" height="35" viewBox="0 0 35 35" fill="none" xmlns="http://www.w3.org/2000/svg">
<path d="M17.2775 0.360584C17.1923 0.589226 17.0503 0.965533 16.9652 1.2037C16.88 1.43711 16.6244 2.14685 16.3973 2.77561C16.1701 3.40438 15.8957 4.18557 15.7821 4.51425C15.6685 4.84292 15.5076 5.3002 15.4272 5.53837C15.0722 6.53392 14.7646 7.4723 14.7646 7.55328C14.7646 7.72952 15.6591 8.99182 16.7995 10.4304C17.022 10.7066 17.2538 11.0067 17.3248 11.0925C17.3958 11.183 17.4668 11.2354 17.4999 11.2115C17.6277 11.1306 20.1547 7.77239 20.1879 7.62949C20.2021 7.57233 20.0837 7.16744 19.9039 6.67682C19.7336 6.21001 19.4544 5.41452 19.284 4.91913C19.1089 4.41898 18.9196 3.87595 18.8581 3.70447C18.7966 3.53299 18.6688 3.17097 18.5741 2.8947C18.2713 2.01824 17.5472 0.117652 17.4715 0.00333133C17.4526 -0.0252489 17.3721 0.122416 17.2775 0.360584Z" fill="#C8AA6E"/>
<path d="M17.713 0.34671C17.7698 0.489611 17.8218 0.589642 17.8313 0.565825C17.8455 0.522955 17.6657 0.0847245 17.6326 0.0847245C17.6231 0.0847245 17.661 0.203809 17.713 0.34671Z" fill="#C8AA6E"/>
<path d="M8.04492 3.65707C8.04492 3.68565 8.10644 3.90953 8.18216 4.1477C8.25788 4.39063 8.39038 4.8098 8.47083 5.08608C8.62226 5.57671 8.88254 6.42935 9.01031 6.84853C9.24219 7.60114 9.53086 8.53 9.60185 8.75388L9.68703 9.01586L10.8417 9.03015C12.2709 9.04921 12.2898 9.04444 12.3324 8.81104C12.3513 8.71577 12.4791 8.17751 12.6211 7.61543C12.763 7.05812 12.8671 6.57225 12.8577 6.54367C12.834 6.48175 11.7645 5.81488 9.76274 4.61451C9.22326 4.2906 8.72637 3.99527 8.66485 3.95716C8.34306 3.75234 8.04492 3.60943 8.04492 3.65707Z" fill="#C8AA6E"/>
<path d="M26.6616 3.70947C26.2925 3.90953 24.57 4.94318 24.0163 5.30044C23.7797 5.4481 23.3585 5.71009 22.6439 6.13879C22.0145 6.51986 22.0287 6.50557 22.0997 6.80566C22.1707 7.11528 22.3836 7.93458 22.5635 8.57287L22.6912 9.03968H23.9548C25.3981 9.03968 25.242 9.09208 25.4029 8.53953C25.4549 8.35376 25.5779 7.94887 25.6726 7.63449C26.1269 6.15308 26.8746 3.63325 26.8604 3.62373C26.8557 3.61896 26.7658 3.65707 26.6616 3.70947Z" fill="#C8AA6E"/>
<path d="M8.54179 3.78082C8.65536 3.87132 8.89671 3.99993 8.89671 3.97611C8.89671 3.94753 8.52286 3.7046 8.485 3.7046C8.46134 3.7046 8.48973 3.74271 8.54179 3.78082Z" fill="#C8AA6E"/>
<path d="M26.9316 3.7378C26.9316 3.76638 26.9126 3.83307 26.8984 3.8807C26.8748 3.94739 26.8795 3.95216 26.9221 3.91405C26.9552 3.8807 26.9742 3.81878 26.96 3.77115C26.9458 3.71875 26.9363 3.70446 26.9316 3.7378Z" fill="#C8AA6E"/>
<path d="M26.2406 3.8001C26.1885 3.82392 26.0939 3.8906 26.0276 3.94776C25.914 4.04303 25.914 4.04303 26.0986 3.93824C26.3731 3.78581 26.4535 3.70483 26.2406 3.8001Z" fill="#C8AA6E"/>
<path d="M26.6002 4.85272C26.5671 4.95751 26.5482 5.05754 26.5624 5.06707C26.5719 5.07659 26.605 5.00038 26.6381 4.89082C26.6712 4.78603 26.6902 4.686 26.676 4.67647C26.6665 4.66694 26.6334 4.74316 26.6002 4.85272Z" fill="#C8AA6E"/>
<path d="M8.23901 4.77613C8.23901 4.82853 8.26741 4.92379 8.30527 4.99048C8.39045 5.14291 8.39045 5.10957 8.30527 4.8714C8.26741 4.7666 8.23901 4.72373 8.23901 4.77613Z" fill="#C8AA6E"/>
<path d="M19.4496 8.81111C19.3786 8.91114 19.3692 8.94449 19.4212 8.90162C19.4969 8.83969 19.6152 8.65869 19.5774 8.65869C19.5679 8.65869 19.5111 8.73014 19.4496 8.81111Z" fill="#C8AA6E"/>
<path d="M24.9629 9.13499L24.6316 9.16357L24.9487 9.17309C25.1238 9.17786 25.2799 9.1588 25.2941 9.13499C25.3083 9.10641 25.3178 9.09212 25.3083 9.09688C25.2988 9.10164 25.1474 9.11593 24.9629 9.13499Z" fill="#C8AA6E"/>
<path d="M11.2533 9.16815C11.3101 9.17767 11.3952 9.17767 11.4426 9.16815C11.4851 9.15386 11.4378 9.14433 11.3337 9.14909C11.2296 9.14909 11.1917 9.15862 11.2533 9.16815Z" fill="#C8AA6E"/>
<path d="M22.9421 9.16815C23.0746 9.17767 23.3017 9.17767 23.439 9.16815C23.5715 9.15862 23.4626 9.15386 23.1882 9.15386C22.9137 9.15386 22.8049 9.15862 22.9421 9.16815Z" fill="#C8AA6E"/>
<path d="M7.20728 10.2162C5.94376 11.6833 4.80801 13.1028 3.84262 14.4222C3.70539 14.6128 2.61696 16.2561 2.47499 16.4943C1.59952 17.9424 0.709844 19.8668 0.312331 21.1672C0.212953 21.4768 0.10411 21.8293 0.0662521 21.9436C0.0283938 22.0627 0 22.2294 0 22.3247V22.4914L0.463765 22.0389C1.17834 21.3386 1.6847 20.9242 2.43713 20.4193C3.79057 19.5143 5.72134 18.6378 7.40604 18.1615C7.56221 18.1186 7.74203 18.0614 7.80829 18.0329C7.91713 17.99 8.77367 17.7566 8.82573 17.7566C8.83519 17.7566 8.90145 17.8566 8.97243 17.9805C9.93309 19.6905 11.1635 20.9528 12.8245 21.9388C13.2599 22.1961 13.9082 22.4961 13.9461 22.4533C13.9745 22.4247 13.629 20.7051 13.4113 19.8048C13.1984 18.9331 13.0753 18.7045 12.4033 17.9519C12.1147 17.6327 11.8781 17.3517 11.8781 17.3279C11.8781 17.1993 12.2614 17.1421 13.8609 17.0373C14.8357 16.9754 14.8215 16.9659 14.8973 17.4946C14.9257 17.6756 15.0771 18.6616 15.238 19.6858C15.3942 20.7051 15.5645 21.8102 15.6166 22.1389C15.6686 22.4676 15.7538 23.0106 15.8059 23.3536C15.8579 23.6918 15.9762 24.4444 16.0709 25.0207C16.298 26.4545 16.4211 27.2786 16.4211 27.3786C16.4211 27.4596 15.9857 28.1503 15.4225 28.9505C14.8736 29.7365 14.3672 30.4938 14.1638 30.8463C13.9461 31.2131 13.9461 31.2131 13.9129 31.7847C13.894 32.0991 13.8893 32.9517 13.9082 33.6758L13.9366 35L14.4098 34.7856C15.5929 34.2569 17.3486 33.5234 17.4243 33.5234C17.5 33.5234 17.8786 33.6567 18.101 33.7615C18.1531 33.7853 18.5033 33.933 18.8819 34.0902C19.2604 34.2426 19.8709 34.5046 20.2448 34.6666C20.6186 34.8238 20.9451 34.9524 20.9735 34.9428C21.0019 34.9333 21.0209 34.276 21.0256 33.1185L21.035 31.3084L20.7085 30.7654C20.4199 30.2843 20.0413 29.7174 19.0286 28.2646C18.8629 28.0264 18.6784 27.7406 18.6121 27.6215L18.4938 27.4024L18.7588 25.6638C18.9055 24.7064 19.0475 23.7965 19.0711 23.6394C19.0995 23.4822 19.2273 22.6438 19.3598 21.7816C19.6343 19.9763 19.7005 19.5667 19.8047 18.9712C19.8425 18.7331 19.9088 18.3377 19.9466 18.09C20.0507 17.4184 20.117 17.1231 20.1738 17.0468C20.2211 16.9944 20.3441 16.9849 20.8221 17.0135C21.7544 17.0611 22.9185 17.1945 22.9942 17.2612C23.0605 17.3231 23.0226 17.3755 22.1992 18.3282C22.0336 18.5235 21.8443 18.7998 21.7828 18.9427C21.655 19.2285 21.4231 20.0764 21.319 20.6289C21.1723 21.4291 21.0161 22.2294 20.983 22.3485C20.9404 22.5295 21.0067 22.5104 21.6313 22.1913C22.1187 21.9484 22.3743 21.7864 23.0463 21.3244C24.0401 20.6384 25.1995 19.319 25.8573 18.1234C26.0655 17.7471 26.0749 17.7423 26.7138 17.9233C27.859 18.252 28.3938 18.4282 29.2692 18.7664C29.9696 19.0379 31.3089 19.6858 31.872 20.0287C32.8611 20.6241 33.8596 21.4053 34.5174 22.0865C34.7208 22.2961 34.8959 22.4723 34.9054 22.4723C34.9669 22.4723 34.9054 22.1103 34.7634 21.6483C34.1056 19.4619 33.1308 17.4613 31.6685 15.2796C31.2473 14.6556 31.1432 14.508 30.5659 13.7363C30.3719 13.4791 30.1826 13.2219 30.1447 13.1647C29.927 12.836 28.1997 10.764 27.3811 9.8351L27.135 9.55882L27.1539 10.0113C27.1918 10.8211 27.0545 11.2975 26.6759 11.6785C26.3825 11.9691 26.0371 12.0644 25.3935 12.0263C24.5369 11.9739 23.8366 11.7738 21.9578 11.045C21.4752 10.8592 21.0161 10.6973 20.9404 10.6782C20.8032 10.6544 20.7653 10.6877 20.2306 11.3117C19.9182 11.6738 19.5586 12.0977 19.4261 12.2549C19.2983 12.4168 19.0806 12.6741 18.9434 12.8313C18.1436 13.7506 17.8928 14.0412 17.7272 14.246C17.6278 14.3698 17.5095 14.4699 17.4669 14.4699C17.4243 14.4699 17.1025 14.1317 16.7523 13.722C16.4021 13.3124 16.0283 12.8789 15.9242 12.7598C15.8201 12.6407 15.626 12.4121 15.4983 12.2549C15.0629 11.7262 14.1874 10.7306 14.1259 10.6973C14.0928 10.6782 13.9224 10.7116 13.7426 10.7782C13.5628 10.8402 13.1085 11.0021 12.7299 11.1355C12.1147 11.3546 11.0073 11.7309 10.4016 11.9215C9.76272 12.1263 9.08127 12.1072 8.56545 11.8691C8.24366 11.7214 8.07329 11.5594 7.9124 11.2546C7.78936 11.0212 7.78462 10.9926 7.79409 10.2876C7.80355 9.89226 7.79882 9.56359 7.78936 9.56359C7.77989 9.56359 7.51962 9.85892 7.20728 10.2162Z" fill="#C8AA6E"/>
<path d="M25.2847 11.9308C25.3272 11.9404 25.403 11.9404 25.4503 11.9308C25.4929 11.9166 25.455 11.907 25.3651 11.907C25.2752 11.907 25.2373 11.9166 25.2847 11.9308Z" fill="#C8AA6E"/>
<path d="M9.4078 11.9787C9.46459 11.9882 9.54977 11.9882 9.5971 11.9787C9.63969 11.9644 9.59236 11.9549 9.48825 11.9596C9.38414 11.9596 9.34628 11.9692 9.4078 11.9787Z" fill="#C8AA6E"/>
<path d="M15.9478 12.6834C16.0377 12.7739 16.1181 12.8501 16.1276 12.8501C16.1654 12.8501 15.8768 12.5214 15.8342 12.5214C15.8058 12.5167 15.8578 12.5929 15.9478 12.6834Z" fill="#C8AA6E"/>
<path d="M18.9243 12.693L18.7634 12.874L18.9433 12.7121C19.0379 12.6216 19.1183 12.5406 19.1183 12.5311C19.1183 12.493 19.0805 12.5311 18.9243 12.693Z" fill="#C8AA6E"/>
<path d="M21.6596 18.8617C21.617 19.0094 21.6501 19.0189 21.7116 18.876C21.74 18.8093 21.7495 18.7569 21.7258 18.7569C21.7022 18.7569 21.6738 18.8046 21.6596 18.8617Z" fill="#C8AA6E"/>
<path d="M13.6573 20.4717C13.6952 20.6766 13.7236 20.7147 13.7236 20.5622C13.7236 20.5003 13.6999 20.4146 13.6762 20.3765C13.6431 20.3241 13.6384 20.3526 13.6573 20.4717Z" fill="#C8AA6E"/>
<path d="M33.9778 21.6768C33.9778 21.6864 34.0488 21.7531 34.1339 21.834L34.2854 21.9722L34.1481 21.815C34.0156 21.6721 33.9778 21.6387 33.9778 21.6768Z" fill="#C8AA6E"/>
<path d="M12.8009 22.0435C12.834 22.0959 13.1085 22.2484 13.1085 22.215C13.1085 22.2055 13.0327 22.1531 12.9381 22.0959C12.8482 22.0388 12.7867 22.0197 12.8009 22.0435Z" fill="#C8AA6E"/>
<path d="M21.9246 22.1388C21.7874 22.2198 21.6738 22.296 21.6738 22.3103C21.6738 22.3341 22.0903 22.1055 22.1707 22.034C22.2512 21.9626 22.1707 21.9959 21.9246 22.1388Z" fill="#C8AA6E"/>
<path d="M34.4322 22.1437C34.5505 22.2914 34.735 22.4533 34.735 22.4105C34.735 22.4057 34.6356 22.3009 34.5126 22.1866C34.3186 21.9961 34.3091 21.9913 34.4322 22.1437Z" fill="#C8AA6E"/>
<path d="M20.822 22.4531C20.822 22.5341 20.9498 22.6294 21.0208 22.6008C21.0586 22.5817 21.0539 22.5722 21.0018 22.5722C20.9593 22.5674 20.8977 22.5293 20.8741 22.4817C20.8457 22.4388 20.822 22.4245 20.822 22.4531Z" fill="#C8AA6E"/>
<path d="M34.7777 22.5297C34.8487 22.6249 34.9481 22.6392 34.9954 22.5678C35.0096 22.5392 34.9907 22.5344 34.9481 22.5487C34.9102 22.5678 34.8392 22.5487 34.7919 22.5154C34.7209 22.4535 34.7162 22.4582 34.7777 22.5297Z" fill="#C8AA6E"/>
</svg>
