<svg width="35" height="35" viewBox="0 0 35 35" fill="none" xmlns="http://www.w3.org/2000/svg">
<path d="M2.0324 0.641433C1.16262 1.9977 0.470997 3.6904 0.146141 5.19386C-0.0320049 6.04547 -0.0529633 9.04187 0.114704 9.147C0.177579 9.18906 0.890165 9.2206 1.68658 9.23111C2.69259 9.24163 3.17463 9.28368 3.26894 9.36779C3.45757 9.56755 3.33182 9.65166 1.88569 10.2404C1.16262 10.5348 0.544351 10.8187 0.502434 10.8502C0.418601 10.9343 1.09975 12.627 1.53988 13.405L1.85425 13.9728L3.67763 14.0254C5.95162 14.0884 6.00401 14.1725 4.24351 14.8875C3.55188 15.1819 2.96505 15.4237 2.95457 15.4447C2.88121 15.5183 3.10128 15.8127 3.8453 16.6327L4.5998 17.4738L5.31239 17.2636C6.28695 16.9902 7.58637 17.0428 8.3304 17.3897C8.96963 17.6946 10.5834 19.2612 10.5834 19.5766C10.5834 19.7238 10.3843 19.9235 9.98611 20.1969C9.65078 20.4177 9.24209 20.8067 9.06394 21.0485C8.781 21.4585 8.74957 21.5847 8.74957 22.3101C8.74957 23.3405 9.0325 23.9082 9.78701 24.3708C10.3738 24.7388 11.3484 24.8544 11.9981 24.6442C12.8679 24.3603 13.5071 23.4561 13.5176 22.5204C13.5176 22.1314 11.9772 13.2368 11.9038 13.2368C11.9038 13.2368 11.4322 13.0055 10.8768 12.7217C8.93819 11.7229 6.88427 10.0512 5.61628 8.42156C3.88722 6.18214 3.05936 4.17403 2.68211 1.31431C2.59827 0.662461 2.50396 0.105236 2.47252 0.0736945C2.45157 0.0421534 2.25246 0.304996 2.0324 0.641433Z" fill="#C8AA6E"/>
<path d="M32.4327 0.630886C31.9402 5.07817 30.0539 8.48461 26.6167 11.1341C25.8308 11.7438 23.9236 12.9109 23.4311 13.0896C23.0957 13.2158 23.0748 13.2473 22.9176 14.1199C22.8233 14.6141 22.467 16.5907 22.1212 18.5147C21.7649 20.4282 21.4819 22.226 21.4819 22.5099C21.4924 23.4246 22.0478 24.2446 22.9176 24.6126C23.3368 24.7808 24.2065 24.7913 24.7724 24.6231C25.7051 24.3392 26.3862 23.1827 26.2709 22.0683C26.1766 21.1221 25.8518 20.6805 24.8667 20.1233C24.5628 19.9445 24.3113 19.7342 24.3113 19.6607C24.3113 19.3558 25.8518 17.8523 26.5329 17.4948C27.4132 17.0217 28.6078 16.9376 29.6557 17.274L30.3369 17.4948L30.9447 16.8535C31.28 16.496 31.521 16.1701 31.4686 16.1281C31.4267 16.086 30.9866 15.8757 30.494 15.676C29.8234 15.4026 29.6033 15.2659 29.6033 15.1187C29.6033 14.94 29.7291 14.919 31.1123 14.8664L32.6318 14.8138L33.1348 13.9727C33.6378 13.1317 34.4237 11.4179 34.4971 11.0394C34.5181 10.8712 34.3085 10.745 33.2186 10.293C32.0554 9.80933 31.9087 9.71471 31.9087 9.49392V9.24159L33.3234 9.22056C34.0989 9.22056 34.801 9.19954 34.8744 9.19954C34.9687 9.18902 35.0001 8.76848 35.0001 7.47529C35.0001 6.00338 34.9582 5.6354 34.7276 4.72071C34.3399 3.16468 33.5016 1.31428 32.6947 0.262907L32.5061 6.4831e-05L32.4327 0.630886Z" fill="#C8AA6E"/>
<path d="M14.7857 2.69145C14.4818 3.40638 13.9264 4.72059 13.5596 5.61426L12.8889 7.24388L13.4024 8.61066C13.6853 9.36764 14.4608 11.3442 15.121 13.0264C15.7812 14.6981 16.3785 16.2646 16.4414 16.4959C16.5147 16.7693 16.5566 18.3779 16.5566 21.0694C16.5566 25.79 16.609 25.3484 15.5611 28.6918C15.1734 29.9009 14.859 31.0784 14.859 31.2992C14.8485 31.5936 15.0581 32.1193 15.6869 33.3494L16.5147 35H17.4998H18.4848L19.3231 33.3388C19.9624 32.0562 20.1615 31.5831 20.1405 31.2887C20.1405 31.0679 19.8157 29.9114 19.4384 28.7023C18.3905 25.3484 18.4429 25.748 18.4429 20.9853V16.8113L18.7363 15.9702C18.904 15.5076 19.6585 13.5521 20.413 11.6281C21.178 9.70408 21.8591 7.91675 21.922 7.65391C22.0792 7.07566 22.0477 6.96001 20.633 3.69025L19.648 1.40878H17.4998H15.3515L14.7857 2.69145ZM18.9249 5.91915C19.1764 6.571 19.386 7.21234 19.3755 7.3385C19.3755 7.45415 19.0088 8.57911 18.5582 9.81973C17.4578 12.8792 17.5417 12.8792 16.389 9.68305L15.5402 7.28593L15.9908 6.11891C16.2423 5.47758 16.5042 4.88881 16.5776 4.8047C16.6614 4.69957 16.9234 4.66802 17.5836 4.68905L18.4639 4.72059L18.9249 5.91915Z" fill="#C8AA6E"/>
</svg>
