<svg width="35" height="35" viewBox="0 0 35 35" fill="none" xmlns="http://www.w3.org/2000/svg">
<path d="M15.7601 0.904687C13.9824 2.34273 11.954 4.56937 11.6577 5.45074C11.4982 5.91463 11.2703 7.12072 11.1336 8.16446C10.7689 10.739 10.1763 12.2234 8.83169 13.8238C7.44146 15.4938 4.27354 18.5554 3.93168 18.5554C3.81772 18.5554 3.47586 18.3467 3.20237 18.0916C2.92888 17.8364 2.67818 17.6277 2.60981 17.6277C2.54144 17.6277 2.01725 17.303 1.44748 16.8855C0.900503 16.4912 0.353524 16.236 0.262361 16.3288C-0.102292 16.6999 -0.0795008 20.5501 0.285152 22.0578C1.12841 25.4905 3.31632 28.8073 6.3475 31.2659C7.92006 32.5415 11.9084 34.7682 12.1591 34.513C12.2503 34.4435 11.7717 33.6317 11.1336 32.7039C10.4726 31.7993 9.65216 30.3381 9.28751 29.4799C8.5582 27.694 7.87448 23.8669 7.98843 22.1274L8.05681 20.9908L9.58379 22.9855C11.2247 25.1426 11.7489 25.6529 11.9768 25.4441C12.0452 25.3513 11.954 24.8411 11.7717 24.3076C11.3843 23.2175 10.9968 21.849 10.7917 20.7821C10.4498 19.1353 11.6577 15.9809 13.2531 14.4269L14.028 13.6615L15.5778 15.1691C16.4438 16.0041 17.2643 16.6999 17.4238 16.6999C17.5606 16.6999 18.4266 16.0041 19.3154 15.1691L20.9564 13.6151L21.8224 14.5429C23.828 16.6999 24.5117 19.4136 23.8052 22.2665C23.6001 23.0783 23.281 24.0757 23.0987 24.4468C22.7113 25.2122 22.6657 25.7456 22.962 25.7456C23.1899 25.7456 24.489 24.1684 25.8564 22.2665L26.7452 20.9908L26.8136 22.8232C26.8592 23.8437 26.7225 25.4441 26.5401 26.4183C26.1071 28.4826 24.5345 31.9153 23.3266 33.3533C22.848 33.91 22.5289 34.3971 22.5973 34.4667C22.962 34.8378 26.6769 32.7503 28.9332 30.9179C32.7848 27.7867 35.2918 22.5448 34.9727 18.3235C34.9043 17.3725 34.7448 16.5144 34.6308 16.3984C34.5169 16.2824 33.6736 16.7231 32.6708 17.3725C31.6908 18.022 30.8476 18.5554 30.7564 18.5554C30.6653 18.5554 29.389 17.303 27.9304 15.7721C24.7624 12.5018 24.3066 11.6436 23.7824 8.11807C23.3722 5.28838 22.9392 4.4302 21.002 2.50508C19.3838 0.904687 18.0847 0.000114064 17.401 0.000114064C17.1047 0.000114064 16.3754 0.394415 15.7601 0.904687Z" fill="#FAC356"/>
<path d="M12.729 19.5527C12.729 21.4082 13.2304 23.3565 14.142 25.1193C14.803 26.3718 14.8485 26.5341 14.5751 27.2068C13.9141 28.8535 13.9825 29.0623 16.4667 33.33L17.4239 35L18.1988 33.6779C18.6318 32.9589 19.4067 31.6137 19.9537 30.6859C20.5007 29.7813 20.9337 28.9231 20.9337 28.8072C20.9337 28.6912 20.7286 28.1113 20.4779 27.5315L20.0221 26.4645L21.0248 24.4235C21.5718 23.3101 22.096 21.8953 22.1644 21.269C22.3239 20.1557 22.1416 18.0914 21.8681 18.0914C21.7769 18.0914 21.2983 18.9728 20.7514 20.063C18.8825 23.89 17.3783 24.8178 15.9197 23.0086C15.5323 22.5447 14.7574 21.2459 14.1876 20.1093C13.6178 18.996 13.0709 18.0914 12.9569 18.0914C12.8202 18.0914 12.729 18.7409 12.729 19.5527Z" fill="#FAC356"/>
</svg>
