<svg width="35" height="35" viewBox="0 0 35 35" fill="none" xmlns="http://www.w3.org/2000/svg">
<path d="M16.6062 1.6498C16.2241 2.58288 15.8926 3.39932 15.871 3.45764C15.8421 3.53783 16.08 3.72007 16.6638 4.09184L17.4999 4.6167L18.3288 4.09184C18.7828 3.80755 19.1576 3.54512 19.1576 3.50867C19.1576 3.39932 18.6819 2.10905 18.4513 1.59148C18.1774 0.99373 17.608 0.111679 17.4278 0.0096237C17.3125 -0.0486937 17.226 0.118969 16.6062 1.6498Z" fill="#FAC356"/>
<path d="M2.09032 1.48184C1.04523 4.81323 0.511865 6.97097 0.245185 9.01208C-0.42512 14.1221 0.994772 17.8326 4.87245 21.0984C5.24003 21.4045 5.56437 21.6597 5.59321 21.6597C5.62204 21.6597 5.73015 21.5503 5.83826 21.4118C6.37162 20.7339 7.27257 20.4423 8.61318 20.5152C9.24745 20.5516 9.42043 20.5443 9.38439 20.4715C9.35556 20.4204 8.76454 19.5384 8.07982 18.5105C7.3951 17.4754 6.83291 16.5788 6.83291 16.5059C6.83291 16.2289 7.0131 15.7477 7.70503 14.195C8.38974 12.6642 9.09609 10.8418 9.05284 10.7324C9.03843 10.7033 8.64201 10.3461 8.16631 9.94516C7.06355 9.01937 5.70132 7.59059 5.1103 6.74499C4.56252 5.9577 3.76248 4.33211 3.41652 3.28968C3.27957 2.86688 3.0201 1.97025 2.84712 1.2996L2.53719 0.074936L2.09032 1.48184Z" fill="#FAC356"/>
<path d="M32.2466 0.410575C31.9511 2.27673 31.6556 3.37747 31.0862 4.68961C30.1492 6.85465 28.477 8.85202 26.8121 9.82155C26.7977 9.82884 26.8265 10.7765 26.8769 11.9283C26.9923 14.9462 26.8481 16.4916 26.3292 17.6288C26.0985 18.1464 25.3345 18.9191 24.657 19.32L24.1309 19.6334V20.5374C24.1309 21.0331 24.1453 21.4413 24.1669 21.4413C24.1885 21.4413 24.5057 21.2663 24.8732 21.0549C25.9688 20.4207 26.2499 20.3187 26.9058 20.3114C27.3959 20.3114 27.5472 20.3405 27.9076 20.5228C28.1455 20.6394 28.5635 20.9602 28.8518 21.2299L29.3708 21.7256L30.2645 20.9091C30.7546 20.4499 31.3673 19.8521 31.6195 19.5751C33.0755 17.9714 34.2503 15.3325 34.7332 12.577C34.8774 11.7679 34.899 11.4034 34.899 9.9236C34.899 8.49482 34.8701 8.05744 34.7404 7.27016C34.3656 5.0541 33.6377 2.82346 32.643 0.833376L32.2898 0.118988L32.2466 0.410575Z" fill="#FAC356"/>
<path d="M9.49951 0.658404C9.49951 0.687562 9.6797 1.51859 9.89593 2.50998C10.1122 3.49409 10.2923 4.32511 10.2923 4.34698C10.2923 4.36885 10.768 4.37614 11.3519 4.36885L12.4114 4.34698L12.7213 3.54512L13.024 2.74325L12.7285 2.46624C12.2961 2.06531 11.5825 1.60606 10.7608 1.19055C9.8671 0.73859 9.49951 0.585507 9.49951 0.658404Z" fill="#FAC356"/>
<path d="M23.7345 1.33622C22.9056 1.72986 22.2209 2.06518 22.2065 2.07247C22.1993 2.08705 22.2353 2.53172 22.293 3.07116C22.3506 3.6106 22.4011 4.09171 22.4011 4.13545C22.4011 4.3104 22.7903 4.3833 23.7273 4.3833H24.6859L24.9886 2.56088C25.1616 1.5622 25.2841 0.716594 25.2697 0.680146C25.2625 0.650987 24.5706 0.942574 23.7345 1.33622Z" fill="#FAC356"/>
<path d="M12.0727 6.48289C12.0079 6.55579 11.9069 6.73074 11.8493 6.86924C11.6547 7.35036 11.5177 8.96867 11.6331 9.53727L11.6763 9.74867L16.109 10.2881C19.1361 10.6599 20.556 10.864 20.5777 10.9223C20.5993 10.9733 20.4263 11.8189 20.2029 12.8103C19.9794 13.7944 19.8137 14.6182 19.8281 14.6328C19.8425 14.6546 20.1596 14.7494 20.5272 14.8514C21.8966 15.2232 22.5093 15.7918 22.9345 17.1185C23.0066 17.3299 23.1003 17.5049 23.1508 17.5049C23.2012 17.5049 23.4679 17.3591 23.749 17.1768C24.2463 16.8561 24.2535 16.8415 24.34 16.426C24.5274 15.4711 24.5779 14.1735 24.5346 11.4909C24.5058 10.0111 24.477 8.78643 24.4625 8.77914C24.4193 8.72811 12.5556 6.35168 12.3754 6.35168C12.2745 6.35168 12.1376 6.41 12.0727 6.48289Z" fill="#FAC356"/>
<path d="M10.8474 12.1614C10.451 13.1674 9.26172 16.3895 9.26172 16.4551C9.26172 16.4988 10.2419 17.9203 11.4384 19.6115L13.6223 22.6877L12.6421 26.092C12.1015 27.9728 11.6618 29.5255 11.6618 29.5473C11.6618 29.5692 12.5123 30.3419 13.5574 31.2677C14.5953 32.1935 15.8999 33.4109 16.4549 33.9722C17.0099 34.5408 17.4856 35 17.5144 35C17.5865 35 17.9829 34.6355 20.5992 32.157C21.7669 31.049 22.8696 30.0139 23.0426 29.8535L23.3525 29.5619L23.1579 28.5851C23.0498 28.0456 22.6894 26.318 22.3579 24.758C21.6515 21.4704 21.2407 19.4074 21.0605 18.2775L20.9308 17.4829L20.6425 17.3517C19.9145 17.0309 18.4009 16.8487 15.9503 16.7831L14.1485 16.7394V15.9521C14.1485 15.5001 14.1773 15.1356 14.2205 15.1138C14.2638 15.0846 14.9053 15.0117 15.6548 14.9534L17.0243 14.844L17.4351 13.8089L17.8459 12.7738L17.6225 12.73C17.4063 12.6936 11.0636 11.8917 10.9915 11.8917C10.9699 11.8917 10.905 12.0157 10.8474 12.1614Z" fill="#FAC356"/>
<path d="M10.2924 23.8321C9.13921 25.3411 7.4238 26.8938 5.98229 27.7394C4.83628 28.41 2.81816 29.19 1.01627 29.6493L0.201812 29.8607L0.100906 30.1595L0 30.4657L0.655889 31.0343C1.02348 31.3478 1.98208 32.2663 2.80375 33.0827C3.6182 33.8991 4.31013 34.5625 4.34617 34.5625C4.48311 34.5625 5.77327 33.4253 6.54448 32.6162C9.33381 29.7294 10.9699 26.522 10.9339 23.9998C10.9195 23.0229 10.9051 23.0229 10.2924 23.8321Z" fill="#FAC356"/>
<path d="M24.6717 24.153C24.6933 24.2404 24.9816 25.6546 25.3203 27.2948L25.9258 30.2617L27.4177 31.8727C28.7584 33.3161 30.5098 35 30.6684 35C30.6972 35 31.6846 34.0232 32.8667 32.835L35.0001 30.6626L34.9136 30.4075L34.8199 30.1524L33.8902 30.1086C31.0143 29.9628 29.5007 29.1828 27.3529 26.7627C26.3654 25.6473 25.1041 24.3206 24.8302 24.1238L24.6284 23.978L24.6717 24.153Z" fill="#FAC356"/>
</svg>
