<svg width="35" height="35" viewBox="0 0 35 35" fill="none" xmlns="http://www.w3.org/2000/svg">
<path d="M15.7121 0.368584C14.2494 0.899544 13.5559 1.28964 12.494 2.19985C10.4245 3.95527 10.0019 6.63174 11.3238 9.77416C11.8222 10.9661 11.6705 10.9228 13.0466 10.3376C14.5636 9.69831 14.6828 9.75249 14.0543 10.8036C13.8159 11.2045 13.2525 12.1256 12.7974 12.8299C12.3423 13.5342 11.8114 14.4444 11.6164 14.8345C11.2805 15.5172 11.2696 15.593 11.2696 16.85C11.2696 18.8005 11.0746 18.4754 15.9288 24.641L17.4458 26.5698L17.8684 26.1039C18.0959 25.8438 18.7786 24.9878 19.3853 24.2184C20.003 23.4382 21.0757 22.0729 21.78 21.1844C23.4161 19.1147 23.7087 18.5079 23.7628 17.1209C23.8279 15.5064 23.7087 15.2355 20.7073 10.4568C19.277 8.19211 17.9984 6.15496 17.8575 5.93824L17.6083 5.53732L16.9365 5.85156C16.4706 6.07911 16.0914 6.17663 15.723 6.17663C15.2571 6.17663 15.1487 6.13329 14.8345 5.79738C13.7618 4.65961 14.1843 2.82834 15.9505 0.975395C16.4598 0.4336 16.8282 0.000163235 16.7848 0.000163235C16.7307 0.0109991 16.2539 0.173538 15.7121 0.368584ZM18.1284 13.6751C18.6052 14.3361 19.6887 16.0807 20.0788 16.7958C20.4689 17.5327 20.3822 18.2912 19.8296 19.0714C18.8544 20.4367 17.63 21.8887 17.4458 21.8887C17.37 21.8887 17.2183 21.7587 17.1099 21.5853C17.0016 21.4228 16.5465 20.8485 16.0914 20.3175C15.2029 19.2556 14.802 18.5512 14.7153 17.8794C14.6394 17.316 15.062 16.4166 16.2864 14.542C17.4025 12.8516 17.4891 12.8082 18.1284 13.6751Z" fill="#FAC356"/>
<path d="M1.69116 22.8529L1.22524 22.918L0.65096 24.9443C0.325898 26.0604 0.0441779 27.0681 0.0116718 27.1765C-0.0533406 27.3824 0.0441778 27.3932 3.27313 27.4474C6.09033 27.4907 6.75129 27.5341 7.53144 27.7183C9.4168 28.1625 11.0421 28.8777 12.5157 29.918C13.4151 30.5573 15.0404 32.1393 14.9754 32.3344C14.9537 32.4102 14.4011 32.4752 13.4259 32.5077L11.9089 32.5619L11.8764 33.7755L11.8439 35H17.5H23.1561L23.1236 33.7755L23.0911 32.5511L21.6825 32.5186C20.9023 32.5077 20.2305 32.4644 20.1872 32.4427C19.9813 32.3127 20.1547 32.0093 20.8915 31.2724C22.5818 29.5604 24.9764 28.2601 27.4144 27.7183C28.227 27.5341 28.9313 27.4907 31.7269 27.4474C34.9558 27.3932 35.0533 27.3824 34.9883 27.1765C34.9558 27.0681 34.6741 26.0604 34.349 24.9443L33.7748 22.918L33.2547 22.8421C32.4312 22.7337 30.535 22.7446 29.2997 22.8638C27.1002 23.0805 25.5507 23.5139 24.0012 24.3483C22.1701 25.3235 21.184 26.1904 18.8978 28.8235C18.226 29.5929 17.5975 30.2322 17.5 30.2322C17.4025 30.2322 16.774 29.5929 16.0914 28.8019C15.4088 28.0217 14.4661 26.9923 13.9893 26.5263C11.8764 24.4241 9.0809 23.178 5.78694 22.8746C4.49753 22.7554 2.50381 22.7446 1.69116 22.8529Z" fill="#FAC356"/>
</svg>
